<?xml version="1.0" encoding="UTF-8"?><svg xmlns="http://www.w3.org/2000/svg" viewBox="0 0 1183.19 287.97"><defs><style>.cls-1{fill:#dc4039;mix-blend-mode:screen;stroke-width:0px;}.cls-2{isolation:isolate;}</style></defs><g class="cls-2"><g id="Layer_2"><g id="Layer_1-2"><path class="cls-1" d="M286.11,135.78l-92.74.06v-33.57h-92.51c5.48,21.04,17.8,62.32,23.62,83.77h68.88v-16.75h92.74v117.28C139.73,281.97-17.14,328.85,1.52,115.27,4.03-34.83,189.34,6.72,286.13,1.65l-.02,134.13Z"/><path class="cls-1" d="M394.53,203.52l-.26,84.01h-93.96V2.61h284.62v284.92h-133.32l-23.81-84.46-33.26.45ZM394.64,153.45h16.86l-16.6-67.04-.26,83.8"/><polygon class="cls-1" points="599.11 1.65 599.11 286.57 693.07 286.57 693.68 203.58 693.88 203.58 750.41 286.34 790.96 203.58 790.96 286.57 883.73 286.57 883.73 1.65 790.96 1.65 693.07 83.24 670.2 2.1 599.11 1.65"/><path class="cls-1" d="M901,2.76s190.6-1.1,190.6-1.1c121.82,1.43,122.26,182.69.5,184.75v16.69h-63.93l23.54,83.47h-150.71V2.76ZM994.95,88.97l-.36,47.35,14.08-.38-13.72-46.97Z"/></g></g></g></svg>